<mxfile host="65bd71144e">
    <diagram id="B6FuRGe8eG0oxutKveG0" name="Page-1">
        <mxGraphModel dx="853" dy="436" grid="1" gridSize="10" guides="1" tooltips="1" connect="1" arrows="1" fold="1" page="1" pageScale="1" pageWidth="850" pageHeight="1100" math="0" shadow="0">
            <root>
                <mxCell id="0"/>
                <mxCell id="1" parent="0"/>
                <mxCell id="103" style="edgeStyle=orthogonalEdgeStyle;html=1;entryX=0;entryY=0.5;entryDx=0;entryDy=0;shape=flexArrow;fillColor=default;fontStyle=0" parent="1" source="22" target="95" edge="1">
                    <mxGeometry relative="1" as="geometry"/>
                </mxCell>
                <mxCell id="104" style="edgeStyle=orthogonalEdgeStyle;html=1;entryX=0;entryY=0.5;entryDx=0;entryDy=0;shape=flexArrow;fillColor=default;fontStyle=0" parent="1" source="23" target="91" edge="1">
                    <mxGeometry relative="1" as="geometry"/>
                </mxCell>
                <mxCell id="105" style="edgeStyle=orthogonalEdgeStyle;html=1;entryX=0;entryY=0.5;entryDx=0;entryDy=0;shape=flexArrow;fillColor=default;fontStyle=0" parent="1" source="24" target="87" edge="1">
                    <mxGeometry relative="1" as="geometry"/>
                </mxCell>
                <mxCell id="106" style="edgeStyle=orthogonalEdgeStyle;html=1;entryX=0;entryY=0.5;entryDx=0;entryDy=0;shape=flexArrow;fillColor=default;fontStyle=0" parent="1" source="22" target="82" edge="1">
                    <mxGeometry relative="1" as="geometry"/>
                </mxCell>
                <mxCell id="102" style="edgeStyle=orthogonalEdgeStyle;html=1;entryX=0;entryY=0.5;entryDx=0;entryDy=0;shape=flexArrow;fillColor=default;fontStyle=0" parent="1" source="23" target="78" edge="1">
                    <mxGeometry relative="1" as="geometry"/>
                </mxCell>
                <mxCell id="101" style="edgeStyle=orthogonalEdgeStyle;html=1;entryX=0;entryY=0.5;entryDx=0;entryDy=0;shape=flexArrow;fillColor=default;fontStyle=0" parent="1" source="24" target="74" edge="1">
                    <mxGeometry relative="1" as="geometry"/>
                </mxCell>
                <mxCell id="224" style="edgeStyle=orthogonalEdgeStyle;shape=flexArrow;html=1;entryX=0;entryY=0.5;entryDx=0;entryDy=0;fontStyle=0" parent="1" source="220" target="127" edge="1">
                    <mxGeometry relative="1" as="geometry"/>
                </mxCell>
                <mxCell id="225" style="edgeStyle=orthogonalEdgeStyle;shape=flexArrow;html=1;entryX=0;entryY=0.5;entryDx=0;entryDy=0;fontStyle=0" parent="1" source="221" target="123" edge="1">
                    <mxGeometry relative="1" as="geometry"/>
                </mxCell>
                <mxCell id="226" style="edgeStyle=orthogonalEdgeStyle;shape=flexArrow;html=1;entryX=0;entryY=0.5;entryDx=0;entryDy=0;fontStyle=0" parent="1" source="222" target="119" edge="1">
                    <mxGeometry relative="1" as="geometry"/>
                </mxCell>
                <mxCell id="198" value="" style="edgeStyle=elbowEdgeStyle;elbow=horizontal;endArrow=classic;html=1;curved=0;rounded=0;fillColor=default;gradientColor=none;entryX=0;entryY=0.5;entryDx=0;entryDy=0;fontStyle=0" parent="1" target="173" edge="1">
                    <mxGeometry width="50" height="50" relative="1" as="geometry">
                        <mxPoint x="300" y="430" as="sourcePoint"/>
                        <mxPoint x="350" y="400" as="targetPoint"/>
                        <Array as="points"/>
                    </mxGeometry>
                </mxCell>
                <mxCell id="199" value="" style="edgeStyle=elbowEdgeStyle;elbow=horizontal;endArrow=classic;html=1;curved=0;rounded=0;fillColor=default;gradientColor=none;entryX=0;entryY=0.5;entryDx=0;entryDy=0;fontStyle=0" parent="1" target="177" edge="1">
                    <mxGeometry width="50" height="50" relative="1" as="geometry">
                        <mxPoint x="300" y="440" as="sourcePoint"/>
                        <mxPoint x="363" y="407.9999999999999" as="targetPoint"/>
                        <Array as="points"/>
                    </mxGeometry>
                </mxCell>
                <mxCell id="200" value="" style="edgeStyle=elbowEdgeStyle;elbow=horizontal;endArrow=classic;html=1;curved=0;rounded=0;fillColor=default;gradientColor=none;entryX=0;entryY=0.5;entryDx=0;entryDy=0;fontStyle=0" parent="1" target="181" edge="1">
                    <mxGeometry width="50" height="50" relative="1" as="geometry">
                        <mxPoint x="300" y="450" as="sourcePoint"/>
                        <mxPoint x="363" y="410" as="targetPoint"/>
                        <Array as="points"/>
                    </mxGeometry>
                </mxCell>
                <mxCell id="197" style="edgeStyle=orthogonalEdgeStyle;shape=flexArrow;html=1;fillColor=default;fontStyle=0" parent="1" source="193" edge="1">
                    <mxGeometry relative="1" as="geometry">
                        <mxPoint x="320" y="440" as="targetPoint"/>
                        <Array as="points">
                            <mxPoint x="220" y="440"/>
                        </Array>
                    </mxGeometry>
                </mxCell>
                <mxCell id="114" value="" style="rounded=0;whiteSpace=wrap;html=1;fontStyle=0" parent="1" vertex="1">
                    <mxGeometry x="1000" y="251" width="310" height="120" as="geometry"/>
                </mxCell>
                <mxCell id="112" style="shape=flexArrow;html=1;fillColor=default;exitX=1.001;exitY=0.103;exitDx=0;exitDy=0;exitPerimeter=0;fontStyle=0" parent="1" edge="1">
                    <mxGeometry relative="1" as="geometry">
                        <mxPoint x="1548" y="546.0799999999999" as="sourcePoint"/>
                        <mxPoint x="1580" y="546" as="targetPoint"/>
                    </mxGeometry>
                </mxCell>
                <mxCell id="3" value="HDMI TMDS" style="swimlane;fontStyle=0;childLayout=stackLayout;horizontal=1;startSize=70;horizontalStack=0;resizeParent=1;resizeParentMax=0;resizeLast=0;collapsible=1;marginBottom=0;whiteSpace=wrap;html=1;" parent="1" vertex="1">
                    <mxGeometry x="30" y="10" width="90" height="190" as="geometry">
                        <mxRectangle x="160" y="200" width="60" height="30" as="alternateBounds"/>
                    </mxGeometry>
                </mxCell>
                <mxCell id="5" value="RGB data [24]" style="text;strokeColor=none;fillColor=none;align=left;verticalAlign=middle;spacingLeft=4;spacingRight=4;overflow=hidden;points=[[0,0.5],[1,0.5]];portConstraint=eastwest;rotatable=0;whiteSpace=wrap;html=1;fontStyle=0" parent="3" vertex="1">
                    <mxGeometry y="70" width="90" height="30" as="geometry"/>
                </mxCell>
                <mxCell id="6" value="HSYNC" style="text;strokeColor=none;fillColor=none;align=left;verticalAlign=middle;spacingLeft=4;spacingRight=4;overflow=hidden;points=[[0,0.5],[1,0.5]];portConstraint=eastwest;rotatable=0;whiteSpace=wrap;html=1;fontStyle=0" parent="3" vertex="1">
                    <mxGeometry y="100" width="90" height="30" as="geometry"/>
                </mxCell>
                <mxCell id="26" value="VSYNC" style="text;strokeColor=none;fillColor=none;align=left;verticalAlign=middle;spacingLeft=4;spacingRight=4;overflow=hidden;points=[[0,0.5],[1,0.5]];portConstraint=eastwest;rotatable=0;whiteSpace=wrap;html=1;fontStyle=0" parent="3" vertex="1">
                    <mxGeometry y="130" width="90" height="30" as="geometry"/>
                </mxCell>
                <mxCell id="27" value="DataValid" style="text;strokeColor=none;fillColor=none;align=left;verticalAlign=middle;spacingLeft=4;spacingRight=4;overflow=hidden;points=[[0,0.5],[1,0.5]];portConstraint=eastwest;rotatable=0;whiteSpace=wrap;html=1;fontStyle=0" parent="3" vertex="1">
                    <mxGeometry y="160" width="90" height="30" as="geometry"/>
                </mxCell>
                <mxCell id="28" value="HDMI TMDS" style="swimlane;fontStyle=0;childLayout=stackLayout;horizontal=1;startSize=70;horizontalStack=0;resizeParent=1;resizeParentMax=0;resizeLast=0;collapsible=1;marginBottom=0;whiteSpace=wrap;html=1;" parent="1" vertex="1">
                    <mxGeometry x="1060" y="20" width="90" height="190" as="geometry">
                        <mxRectangle x="160" y="200" width="60" height="30" as="alternateBounds"/>
                    </mxGeometry>
                </mxCell>
                <mxCell id="29" value="24'b RGB data" style="text;strokeColor=none;fillColor=none;align=left;verticalAlign=middle;spacingLeft=4;spacingRight=4;overflow=hidden;points=[[0,0.5],[1,0.5]];portConstraint=eastwest;rotatable=0;whiteSpace=wrap;html=1;fontStyle=0" parent="28" vertex="1">
                    <mxGeometry y="70" width="90" height="30" as="geometry"/>
                </mxCell>
                <mxCell id="30" value="HSYNC" style="text;strokeColor=none;fillColor=none;align=left;verticalAlign=middle;spacingLeft=4;spacingRight=4;overflow=hidden;points=[[0,0.5],[1,0.5]];portConstraint=eastwest;rotatable=0;whiteSpace=wrap;html=1;fontStyle=0" parent="28" vertex="1">
                    <mxGeometry y="100" width="90" height="30" as="geometry"/>
                </mxCell>
                <mxCell id="31" value="VSYNC" style="text;strokeColor=none;fillColor=none;align=left;verticalAlign=middle;spacingLeft=4;spacingRight=4;overflow=hidden;points=[[0,0.5],[1,0.5]];portConstraint=eastwest;rotatable=0;whiteSpace=wrap;html=1;fontStyle=0" parent="28" vertex="1">
                    <mxGeometry y="130" width="90" height="30" as="geometry"/>
                </mxCell>
                <mxCell id="32" value="DataValid" style="text;strokeColor=none;fillColor=none;align=left;verticalAlign=middle;spacingLeft=4;spacingRight=4;overflow=hidden;points=[[0,0.5],[1,0.5]];portConstraint=eastwest;rotatable=0;whiteSpace=wrap;html=1;fontStyle=0" parent="28" vertex="1">
                    <mxGeometry y="160" width="90" height="30" as="geometry"/>
                </mxCell>
                <mxCell id="40" value="" style="group;fontStyle=0" parent="1" vertex="1" connectable="0">
                    <mxGeometry x="430" y="20" width="590" height="70" as="geometry"/>
                </mxCell>
                <mxCell id="11" value="RGB to Gray&lt;br&gt;Conversion" style="shape=process;whiteSpace=wrap;html=1;backgroundOutline=1;size=0.2222222222222222;fontStyle=0" parent="40" vertex="1">
                    <mxGeometry width="170" height="70" as="geometry"/>
                </mxCell>
                <mxCell id="34" value="Gaussian Blur" style="shape=process;whiteSpace=wrap;html=1;backgroundOutline=1;size=0.2222222222222222;fontStyle=0" parent="40" vertex="1">
                    <mxGeometry x="210" width="170" height="70" as="geometry"/>
                </mxCell>
                <mxCell id="35" value="Sobel&lt;br&gt;Edge Detection" style="shape=process;whiteSpace=wrap;html=1;backgroundOutline=1;size=0.2222222222222222;fontStyle=0" parent="40" vertex="1">
                    <mxGeometry x="420" width="170" height="70" as="geometry"/>
                </mxCell>
                <mxCell id="36" value="" style="shape=flexArrow;endArrow=classic;html=1;fontStyle=0" parent="40" source="11" edge="1">
                    <mxGeometry width="50" height="50" relative="1" as="geometry">
                        <mxPoint x="170" y="40" as="sourcePoint"/>
                        <mxPoint x="210" y="35" as="targetPoint"/>
                    </mxGeometry>
                </mxCell>
                <mxCell id="39" value="" style="shape=flexArrow;endArrow=classic;html=1;fontStyle=0" parent="40" edge="1">
                    <mxGeometry width="50" height="50" relative="1" as="geometry">
                        <mxPoint x="380" y="34.60000000000002" as="sourcePoint"/>
                        <mxPoint x="420" y="34.60000000000002" as="targetPoint"/>
                    </mxGeometry>
                </mxCell>
                <mxCell id="49" value="" style="group;fontStyle=0" parent="1" vertex="1" connectable="0">
                    <mxGeometry x="310" y="10" width="120" height="90" as="geometry"/>
                </mxCell>
                <mxCell id="47" value="" style="shape=flexArrow;endArrow=classic;html=1;fontStyle=0" parent="49" edge="1">
                    <mxGeometry width="50" height="50" relative="1" as="geometry">
                        <mxPoint x="80" y="44.60000000000002" as="sourcePoint"/>
                        <mxPoint x="120" y="44.60000000000002" as="targetPoint"/>
                    </mxGeometry>
                </mxCell>
                <mxCell id="45" value="" style="group;fontStyle=0" parent="49" vertex="1" connectable="0">
                    <mxGeometry width="90" height="90" as="geometry"/>
                </mxCell>
                <mxCell id="41" value="" style="rounded=0;whiteSpace=wrap;html=1;fontStyle=0" parent="45" vertex="1">
                    <mxGeometry width="60" height="60" as="geometry"/>
                </mxCell>
                <mxCell id="42" value="" style="rounded=0;whiteSpace=wrap;html=1;fontStyle=0" parent="45" vertex="1">
                    <mxGeometry x="10" y="10" width="60" height="60" as="geometry"/>
                </mxCell>
                <mxCell id="43" value="" style="rounded=0;whiteSpace=wrap;html=1;fontStyle=0" parent="45" vertex="1">
                    <mxGeometry x="20" y="20" width="60" height="60" as="geometry"/>
                </mxCell>
                <mxCell id="44" value="" style="rounded=0;whiteSpace=wrap;html=1;fontStyle=0" parent="45" vertex="1">
                    <mxGeometry x="30" y="30" width="60" height="60" as="geometry"/>
                </mxCell>
                <mxCell id="48" value="Buffer" style="text;html=1;strokeColor=none;fillColor=none;align=center;verticalAlign=middle;whiteSpace=wrap;rounded=0;fontStyle=0" parent="45" vertex="1">
                    <mxGeometry x="30" y="45" width="60" height="30" as="geometry"/>
                </mxCell>
                <mxCell id="50" value="" style="edgeStyle=elbowEdgeStyle;elbow=horizontal;endArrow=classic;html=1;curved=0;rounded=0;endSize=8;startSize=8;entryX=0;entryY=0.5;entryDx=0;entryDy=0;exitX=1;exitY=0.5;exitDx=0;exitDy=0;fontStyle=0" parent="1" source="5" target="41" edge="1">
                    <mxGeometry width="50" height="50" relative="1" as="geometry">
                        <mxPoint x="120" y="100" as="sourcePoint"/>
                        <mxPoint x="170" y="50" as="targetPoint"/>
                    </mxGeometry>
                </mxCell>
                <mxCell id="55" value="Sequencer FSM" style="shape=table;startSize=30;container=1;collapsible=0;childLayout=tableLayout;fixedRows=1;rowLines=0;fontStyle=0;" parent="1" vertex="1">
                    <mxGeometry x="160" y="100" width="180" height="120" as="geometry"/>
                </mxCell>
                <mxCell id="56" value="" style="shape=tableRow;horizontal=0;startSize=0;swimlaneHead=0;swimlaneBody=0;top=0;left=0;bottom=0;right=0;collapsible=0;dropTarget=0;fillColor=none;points=[[0,0.5],[1,0.5]];portConstraint=eastwest;fontStyle=0" parent="55" vertex="1">
                    <mxGeometry y="30" width="180" height="30" as="geometry"/>
                </mxCell>
                <mxCell id="57" value="HSYNC" style="shape=partialRectangle;html=1;whiteSpace=wrap;connectable=0;fillColor=none;top=0;left=0;bottom=0;right=0;overflow=hidden;pointerEvents=1;fontStyle=0" parent="56" vertex="1">
                    <mxGeometry width="63" height="30" as="geometry">
                        <mxRectangle width="63" height="30" as="alternateBounds"/>
                    </mxGeometry>
                </mxCell>
                <mxCell id="58" value="Buffer Pointer [10:0]" style="shape=partialRectangle;html=1;whiteSpace=wrap;connectable=0;fillColor=none;top=0;left=0;bottom=0;right=0;align=left;spacingLeft=6;overflow=hidden;fontStyle=0" parent="56" vertex="1">
                    <mxGeometry x="63" width="117" height="30" as="geometry">
                        <mxRectangle width="117" height="30" as="alternateBounds"/>
                    </mxGeometry>
                </mxCell>
                <mxCell id="59" value="" style="shape=tableRow;horizontal=0;startSize=0;swimlaneHead=0;swimlaneBody=0;top=0;left=0;bottom=0;right=0;collapsible=0;dropTarget=0;fillColor=none;points=[[0,0.5],[1,0.5]];portConstraint=eastwest;fontStyle=0" parent="55" vertex="1">
                    <mxGeometry y="60" width="180" height="30" as="geometry"/>
                </mxCell>
                <mxCell id="60" value="VSYNC" style="shape=partialRectangle;html=1;whiteSpace=wrap;connectable=0;fillColor=none;top=0;left=0;bottom=0;right=0;overflow=hidden;fontStyle=0" parent="59" vertex="1">
                    <mxGeometry width="63" height="30" as="geometry">
                        <mxRectangle width="63" height="30" as="alternateBounds"/>
                    </mxGeometry>
                </mxCell>
                <mxCell id="61" value="Store Enable" style="shape=partialRectangle;html=1;whiteSpace=wrap;connectable=0;fillColor=none;top=0;left=0;bottom=0;right=0;align=left;spacingLeft=6;overflow=hidden;fontStyle=0" parent="59" vertex="1">
                    <mxGeometry x="63" width="117" height="30" as="geometry">
                        <mxRectangle width="117" height="30" as="alternateBounds"/>
                    </mxGeometry>
                </mxCell>
                <mxCell id="62" value="" style="shape=tableRow;horizontal=0;startSize=0;swimlaneHead=0;swimlaneBody=0;top=0;left=0;bottom=0;right=0;collapsible=0;dropTarget=0;fillColor=none;points=[[0,0.5],[1,0.5]];portConstraint=eastwest;fontStyle=0" parent="55" vertex="1">
                    <mxGeometry y="90" width="180" height="30" as="geometry"/>
                </mxCell>
                <mxCell id="63" value="DV" style="shape=partialRectangle;html=1;whiteSpace=wrap;connectable=0;fillColor=none;top=0;left=0;bottom=0;right=0;overflow=hidden;fontStyle=0" parent="62" vertex="1">
                    <mxGeometry width="63" height="30" as="geometry">
                        <mxRectangle width="63" height="30" as="alternateBounds"/>
                    </mxGeometry>
                </mxCell>
                <mxCell id="64" value="Chain Enable [3:0]" style="shape=partialRectangle;html=1;whiteSpace=wrap;connectable=0;fillColor=none;top=0;left=0;bottom=0;right=0;align=left;spacingLeft=6;overflow=hidden;fontStyle=0" parent="62" vertex="1">
                    <mxGeometry x="63" width="117" height="30" as="geometry">
                        <mxRectangle width="117" height="30" as="alternateBounds"/>
                    </mxGeometry>
                </mxCell>
                <mxCell id="65" style="edgeStyle=orthogonalEdgeStyle;html=1;entryX=0;entryY=0.5;entryDx=0;entryDy=0;exitX=1;exitY=0.5;exitDx=0;exitDy=0;fontStyle=0" parent="1" source="6" target="56" edge="1">
                    <mxGeometry relative="1" as="geometry"/>
                </mxCell>
                <mxCell id="66" style="edgeStyle=orthogonalEdgeStyle;html=1;entryX=0;entryY=0.5;entryDx=0;entryDy=0;exitX=1;exitY=0.5;exitDx=0;exitDy=0;fontStyle=0" parent="1" source="26" target="59" edge="1">
                    <mxGeometry relative="1" as="geometry"/>
                </mxCell>
                <mxCell id="67" style="edgeStyle=orthogonalEdgeStyle;html=1;exitX=1;exitY=0.5;exitDx=0;exitDy=0;entryX=0;entryY=0.5;entryDx=0;entryDy=0;fontStyle=0" parent="1" source="27" target="62" edge="1">
                    <mxGeometry relative="1" as="geometry"/>
                </mxCell>
                <mxCell id="68" style="edgeStyle=orthogonalEdgeStyle;html=1;exitX=1;exitY=0.5;exitDx=0;exitDy=0;entryX=0.25;entryY=1;entryDx=0;entryDy=0;fontStyle=0" parent="1" source="56" target="44" edge="1">
                    <mxGeometry relative="1" as="geometry"/>
                </mxCell>
                <mxCell id="69" style="edgeStyle=orthogonalEdgeStyle;html=1;exitX=1;exitY=0.5;exitDx=0;exitDy=0;entryX=0.5;entryY=1;entryDx=0;entryDy=0;fontStyle=0" parent="1" source="59" target="44" edge="1">
                    <mxGeometry relative="1" as="geometry"/>
                </mxCell>
                <mxCell id="70" style="edgeStyle=orthogonalEdgeStyle;html=1;entryX=0.5;entryY=1;entryDx=0;entryDy=0;exitX=1;exitY=0.5;exitDx=0;exitDy=0;fontStyle=0" parent="1" source="62" target="11" edge="1">
                    <mxGeometry relative="1" as="geometry">
                        <mxPoint x="610" y="180" as="sourcePoint"/>
                    </mxGeometry>
                </mxCell>
                <mxCell id="71" style="edgeStyle=orthogonalEdgeStyle;html=1;exitX=1;exitY=0.5;exitDx=0;exitDy=0;entryX=0.5;entryY=1;entryDx=0;entryDy=0;fontStyle=0" parent="1" source="62" target="34" edge="1">
                    <mxGeometry relative="1" as="geometry"/>
                </mxCell>
                <mxCell id="72" style="edgeStyle=orthogonalEdgeStyle;html=1;exitX=1;exitY=0.5;exitDx=0;exitDy=0;entryX=0.5;entryY=1;entryDx=0;entryDy=0;fontStyle=0" parent="1" source="62" target="35" edge="1">
                    <mxGeometry relative="1" as="geometry">
                        <mxPoint x="930" y="90" as="targetPoint"/>
                    </mxGeometry>
                </mxCell>
                <mxCell id="110" style="edgeStyle=orthogonalEdgeStyle;shape=flexArrow;html=1;entryX=0.5;entryY=0;entryDx=0;entryDy=0;fillColor=default;fontStyle=0" parent="1" target="109" edge="1">
                    <mxGeometry relative="1" as="geometry">
                        <mxPoint x="1470" y="386" as="sourcePoint"/>
                    </mxGeometry>
                </mxCell>
                <mxCell id="73" value="Gx Matrix" style="shape=table;startSize=30;container=1;collapsible=0;childLayout=tableLayout;fontStyle=0;align=center;" parent="1" vertex="1">
                    <mxGeometry x="1290" y="371" width="180" height="150" as="geometry"/>
                </mxCell>
                <mxCell id="74" value="" style="shape=tableRow;horizontal=0;startSize=0;swimlaneHead=0;swimlaneBody=0;top=0;left=0;bottom=0;right=0;collapsible=0;dropTarget=0;fillColor=none;points=[[0,0.5],[1,0.5]];portConstraint=eastwest;fontStyle=0" parent="73" vertex="1">
                    <mxGeometry y="30" width="180" height="40" as="geometry"/>
                </mxCell>
                <mxCell id="75" value="-1" style="shape=partialRectangle;html=1;whiteSpace=wrap;connectable=0;fillColor=none;top=0;left=0;bottom=0;right=0;overflow=hidden;fontStyle=0" parent="74" vertex="1">
                    <mxGeometry width="60" height="40" as="geometry">
                        <mxRectangle width="60" height="40" as="alternateBounds"/>
                    </mxGeometry>
                </mxCell>
                <mxCell id="76" value="0" style="shape=partialRectangle;html=1;whiteSpace=wrap;connectable=0;fillColor=none;top=0;left=0;bottom=0;right=0;overflow=hidden;fontStyle=0" parent="74" vertex="1">
                    <mxGeometry x="60" width="60" height="40" as="geometry">
                        <mxRectangle width="60" height="40" as="alternateBounds"/>
                    </mxGeometry>
                </mxCell>
                <mxCell id="77" value="1" style="shape=partialRectangle;html=1;whiteSpace=wrap;connectable=0;fillColor=none;top=0;left=0;bottom=0;right=0;overflow=hidden;fontStyle=0" parent="74" vertex="1">
                    <mxGeometry x="120" width="60" height="40" as="geometry">
                        <mxRectangle width="60" height="40" as="alternateBounds"/>
                    </mxGeometry>
                </mxCell>
                <mxCell id="78" value="" style="shape=tableRow;horizontal=0;startSize=0;swimlaneHead=0;swimlaneBody=0;top=0;left=0;bottom=0;right=0;collapsible=0;dropTarget=0;fillColor=none;points=[[0,0.5],[1,0.5]];portConstraint=eastwest;fontStyle=0" parent="73" vertex="1">
                    <mxGeometry y="70" width="180" height="40" as="geometry"/>
                </mxCell>
                <mxCell id="79" value="-2" style="shape=partialRectangle;html=1;whiteSpace=wrap;connectable=0;fillColor=none;top=0;left=0;bottom=0;right=0;overflow=hidden;fontStyle=0" parent="78" vertex="1">
                    <mxGeometry width="60" height="40" as="geometry">
                        <mxRectangle width="60" height="40" as="alternateBounds"/>
                    </mxGeometry>
                </mxCell>
                <mxCell id="80" value="0" style="shape=partialRectangle;html=1;whiteSpace=wrap;connectable=0;fillColor=none;top=0;left=0;bottom=0;right=0;overflow=hidden;fontStyle=0" parent="78" vertex="1">
                    <mxGeometry x="60" width="60" height="40" as="geometry">
                        <mxRectangle width="60" height="40" as="alternateBounds"/>
                    </mxGeometry>
                </mxCell>
                <mxCell id="81" value="2" style="shape=partialRectangle;html=1;whiteSpace=wrap;connectable=0;fillColor=none;top=0;left=0;bottom=0;right=0;overflow=hidden;fontStyle=0" parent="78" vertex="1">
                    <mxGeometry x="120" width="60" height="40" as="geometry">
                        <mxRectangle width="60" height="40" as="alternateBounds"/>
                    </mxGeometry>
                </mxCell>
                <mxCell id="82" value="" style="shape=tableRow;horizontal=0;startSize=0;swimlaneHead=0;swimlaneBody=0;top=0;left=0;bottom=0;right=0;collapsible=0;dropTarget=0;fillColor=none;points=[[0,0.5],[1,0.5]];portConstraint=eastwest;fontStyle=0" parent="73" vertex="1">
                    <mxGeometry y="110" width="180" height="40" as="geometry"/>
                </mxCell>
                <mxCell id="83" value="-1" style="shape=partialRectangle;html=1;whiteSpace=wrap;connectable=0;fillColor=none;top=0;left=0;bottom=0;right=0;overflow=hidden;fontStyle=0" parent="82" vertex="1">
                    <mxGeometry width="60" height="40" as="geometry">
                        <mxRectangle width="60" height="40" as="alternateBounds"/>
                    </mxGeometry>
                </mxCell>
                <mxCell id="84" value="0" style="shape=partialRectangle;html=1;whiteSpace=wrap;connectable=0;fillColor=none;top=0;left=0;bottom=0;right=0;overflow=hidden;fontStyle=0" parent="82" vertex="1">
                    <mxGeometry x="60" width="60" height="40" as="geometry">
                        <mxRectangle width="60" height="40" as="alternateBounds"/>
                    </mxGeometry>
                </mxCell>
                <mxCell id="85" value="1" style="shape=partialRectangle;html=1;whiteSpace=wrap;connectable=0;fillColor=none;top=0;left=0;bottom=0;right=0;overflow=hidden;fontStyle=0" parent="82" vertex="1">
                    <mxGeometry x="120" width="60" height="40" as="geometry">
                        <mxRectangle width="60" height="40" as="alternateBounds"/>
                    </mxGeometry>
                </mxCell>
                <mxCell id="111" style="shape=flexArrow;html=1;entryX=0;entryY=0.5;entryDx=0;entryDy=0;fillColor=default;exitX=1.001;exitY=0.103;exitDx=0;exitDy=0;exitPerimeter=0;fontStyle=0" parent="1" source="86" target="109" edge="1">
                    <mxGeometry relative="1" as="geometry">
                        <mxPoint x="1470" y="606" as="sourcePoint"/>
                    </mxGeometry>
                </mxCell>
                <mxCell id="86" value="Gy Matrix" style="shape=table;startSize=30;container=1;collapsible=0;childLayout=tableLayout;fontStyle=0;align=center;" parent="1" vertex="1">
                    <mxGeometry x="1290" y="531" width="180" height="150" as="geometry"/>
                </mxCell>
                <mxCell id="87" value="" style="shape=tableRow;horizontal=0;startSize=0;swimlaneHead=0;swimlaneBody=0;top=0;left=0;bottom=0;right=0;collapsible=0;dropTarget=0;fillColor=none;points=[[0,0.5],[1,0.5]];portConstraint=eastwest;fontStyle=0" parent="86" vertex="1">
                    <mxGeometry y="30" width="180" height="40" as="geometry"/>
                </mxCell>
                <mxCell id="88" value="-1" style="shape=partialRectangle;html=1;whiteSpace=wrap;connectable=0;fillColor=none;top=0;left=0;bottom=0;right=0;overflow=hidden;fontStyle=0" parent="87" vertex="1">
                    <mxGeometry width="60" height="40" as="geometry">
                        <mxRectangle width="60" height="40" as="alternateBounds"/>
                    </mxGeometry>
                </mxCell>
                <mxCell id="89" value="-2" style="shape=partialRectangle;html=1;whiteSpace=wrap;connectable=0;fillColor=none;top=0;left=0;bottom=0;right=0;overflow=hidden;fontStyle=0" parent="87" vertex="1">
                    <mxGeometry x="60" width="60" height="40" as="geometry">
                        <mxRectangle width="60" height="40" as="alternateBounds"/>
                    </mxGeometry>
                </mxCell>
                <mxCell id="90" value="-1" style="shape=partialRectangle;html=1;whiteSpace=wrap;connectable=0;fillColor=none;top=0;left=0;bottom=0;right=0;overflow=hidden;fontStyle=0" parent="87" vertex="1">
                    <mxGeometry x="120" width="60" height="40" as="geometry">
                        <mxRectangle width="60" height="40" as="alternateBounds"/>
                    </mxGeometry>
                </mxCell>
                <mxCell id="91" value="" style="shape=tableRow;horizontal=0;startSize=0;swimlaneHead=0;swimlaneBody=0;top=0;left=0;bottom=0;right=0;collapsible=0;dropTarget=0;fillColor=none;points=[[0,0.5],[1,0.5]];portConstraint=eastwest;fontStyle=0" parent="86" vertex="1">
                    <mxGeometry y="70" width="180" height="40" as="geometry"/>
                </mxCell>
                <mxCell id="92" value="0" style="shape=partialRectangle;html=1;whiteSpace=wrap;connectable=0;fillColor=none;top=0;left=0;bottom=0;right=0;overflow=hidden;fontStyle=0" parent="91" vertex="1">
                    <mxGeometry width="60" height="40" as="geometry">
                        <mxRectangle width="60" height="40" as="alternateBounds"/>
                    </mxGeometry>
                </mxCell>
                <mxCell id="93" value="0" style="shape=partialRectangle;html=1;whiteSpace=wrap;connectable=0;fillColor=none;top=0;left=0;bottom=0;right=0;overflow=hidden;fontStyle=0" parent="91" vertex="1">
                    <mxGeometry x="60" width="60" height="40" as="geometry">
                        <mxRectangle width="60" height="40" as="alternateBounds"/>
                    </mxGeometry>
                </mxCell>
                <mxCell id="94" value="0" style="shape=partialRectangle;html=1;whiteSpace=wrap;connectable=0;fillColor=none;top=0;left=0;bottom=0;right=0;overflow=hidden;fontStyle=0" parent="91" vertex="1">
                    <mxGeometry x="120" width="60" height="40" as="geometry">
                        <mxRectangle width="60" height="40" as="alternateBounds"/>
                    </mxGeometry>
                </mxCell>
                <mxCell id="95" value="" style="shape=tableRow;horizontal=0;startSize=0;swimlaneHead=0;swimlaneBody=0;top=0;left=0;bottom=0;right=0;collapsible=0;dropTarget=0;fillColor=none;points=[[0,0.5],[1,0.5]];portConstraint=eastwest;fontStyle=0" parent="86" vertex="1">
                    <mxGeometry y="110" width="180" height="40" as="geometry"/>
                </mxCell>
                <mxCell id="96" value="1" style="shape=partialRectangle;html=1;whiteSpace=wrap;connectable=0;fillColor=none;top=0;left=0;bottom=0;right=0;overflow=hidden;fontStyle=0" parent="95" vertex="1">
                    <mxGeometry width="60" height="40" as="geometry">
                        <mxRectangle width="60" height="40" as="alternateBounds"/>
                    </mxGeometry>
                </mxCell>
                <mxCell id="97" value="2" style="shape=partialRectangle;html=1;whiteSpace=wrap;connectable=0;fillColor=none;top=0;left=0;bottom=0;right=0;overflow=hidden;fontStyle=0" parent="95" vertex="1">
                    <mxGeometry x="60" width="60" height="40" as="geometry">
                        <mxRectangle width="60" height="40" as="alternateBounds"/>
                    </mxGeometry>
                </mxCell>
                <mxCell id="98" value="1" style="shape=partialRectangle;html=1;whiteSpace=wrap;connectable=0;fillColor=none;top=0;left=0;bottom=0;right=0;overflow=hidden;fontStyle=0" parent="95" vertex="1">
                    <mxGeometry x="120" width="60" height="40" as="geometry">
                        <mxRectangle width="60" height="40" as="alternateBounds"/>
                    </mxGeometry>
                </mxCell>
                <mxCell id="107" value="" style="group;fontStyle=0" parent="1" vertex="1" connectable="0">
                    <mxGeometry x="1000" y="251" width="316" height="120" as="geometry"/>
                </mxCell>
                <mxCell id="13" value="Pixel row buffer" style="swimlane;childLayout=stackLayout;horizontal=1;fillColor=none;horizontalStack=1;resizeParent=1;resizeParentMax=0;resizeLast=0;collapsible=0;strokeColor=none;stackBorder=10;stackSpacing=-12;resizable=1;align=center;points=[];whiteSpace=wrap;html=1;fontStyle=0" parent="107" vertex="1">
                    <mxGeometry width="296" height="100" as="geometry"/>
                </mxCell>
                <mxCell id="14" value="FF 1" style="shape=step;perimeter=stepPerimeter;fixedSize=1;points=[];whiteSpace=wrap;html=1;fontStyle=0" parent="13" vertex="1">
                    <mxGeometry x="10" y="33" width="100" height="57" as="geometry"/>
                </mxCell>
                <mxCell id="15" value="FF 2" style="shape=step;perimeter=stepPerimeter;fixedSize=1;points=[];whiteSpace=wrap;html=1;fontStyle=0" parent="13" vertex="1">
                    <mxGeometry x="98" y="33" width="100" height="57" as="geometry"/>
                </mxCell>
                <mxCell id="16" value="FF 3" style="shape=step;perimeter=stepPerimeter;fixedSize=1;points=[];whiteSpace=wrap;html=1;fontStyle=0" parent="13" vertex="1">
                    <mxGeometry x="186" y="33" width="100" height="57" as="geometry"/>
                </mxCell>
                <mxCell id="17" value="" style="swimlane;childLayout=stackLayout;horizontal=1;fillColor=none;horizontalStack=1;resizeParent=1;resizeParentMax=0;resizeLast=0;collapsible=0;strokeColor=none;stackBorder=10;stackSpacing=-12;resizable=1;align=center;points=[];whiteSpace=wrap;html=1;fontStyle=0" parent="107" vertex="1">
                    <mxGeometry x="10" y="10" width="296" height="100" as="geometry"/>
                </mxCell>
                <mxCell id="18" value="FF 1" style="shape=step;perimeter=stepPerimeter;fixedSize=1;points=[];whiteSpace=wrap;html=1;fontStyle=0" parent="17" vertex="1">
                    <mxGeometry x="10" y="33" width="100" height="57" as="geometry"/>
                </mxCell>
                <mxCell id="19" value="FF 2" style="shape=step;perimeter=stepPerimeter;fixedSize=1;points=[];whiteSpace=wrap;html=1;fontStyle=0" parent="17" vertex="1">
                    <mxGeometry x="98" y="33" width="100" height="57" as="geometry"/>
                </mxCell>
                <mxCell id="20" value="FF 3" style="shape=step;perimeter=stepPerimeter;fixedSize=1;points=[];whiteSpace=wrap;html=1;fontStyle=0" parent="17" vertex="1">
                    <mxGeometry x="186" y="33" width="100" height="57" as="geometry"/>
                </mxCell>
                <mxCell id="21" value="" style="swimlane;childLayout=stackLayout;horizontal=1;fillColor=none;horizontalStack=1;resizeParent=1;resizeParentMax=0;resizeLast=0;collapsible=0;strokeColor=none;stackBorder=10;stackSpacing=-12;resizable=1;align=center;points=[];whiteSpace=wrap;html=1;fontStyle=0" parent="107" vertex="1">
                    <mxGeometry x="20" y="20" width="296" height="100" as="geometry"/>
                </mxCell>
                <mxCell id="22" value="FF 1" style="shape=step;perimeter=stepPerimeter;fixedSize=1;points=[];whiteSpace=wrap;html=1;fontStyle=0" parent="21" vertex="1">
                    <mxGeometry x="10" y="33" width="100" height="57" as="geometry"/>
                </mxCell>
                <mxCell id="23" value="FF 2" style="shape=step;perimeter=stepPerimeter;fixedSize=1;points=[];whiteSpace=wrap;html=1;fontStyle=0" parent="21" vertex="1">
                    <mxGeometry x="98" y="33" width="100" height="57" as="geometry"/>
                </mxCell>
                <mxCell id="24" value="FF 3" style="shape=step;perimeter=stepPerimeter;fixedSize=1;points=[];whiteSpace=wrap;html=1;fontStyle=0" parent="21" vertex="1">
                    <mxGeometry x="186" y="33" width="100" height="57" as="geometry"/>
                </mxCell>
                <mxCell id="109" value="" style="shape=sumEllipse;perimeter=ellipsePerimeter;whiteSpace=wrap;html=1;backgroundOutline=1;fontStyle=0" parent="1" vertex="1">
                    <mxGeometry x="1520" y="531" width="30" height="30" as="geometry"/>
                </mxCell>
                <mxCell id="113" style="shape=flexArrow;html=1;entryX=0;entryY=0.5;entryDx=0;entryDy=0;fillColor=default;fontStyle=0" parent="1" target="114" edge="1">
                    <mxGeometry relative="1" as="geometry">
                        <mxPoint x="960" y="311" as="sourcePoint"/>
                        <mxPoint x="1000" y="310.37" as="targetPoint"/>
                    </mxGeometry>
                </mxCell>
                <mxCell id="223" style="edgeStyle=orthogonalEdgeStyle;html=1;entryX=0;entryY=0.5;entryDx=0;entryDy=0;shape=flexArrow;exitX=0.5;exitY=0;exitDx=0;exitDy=0;fontStyle=0" parent="1" source="118" target="164" edge="1">
                    <mxGeometry relative="1" as="geometry"/>
                </mxCell>
                <mxCell id="118" value="Gauss Blur Matrix" style="shape=table;startSize=30;container=1;collapsible=0;childLayout=tableLayout;fontStyle=0;align=center;" parent="1" vertex="1">
                    <mxGeometry x="810" y="420" width="180" height="150" as="geometry"/>
                </mxCell>
                <mxCell id="119" value="" style="shape=tableRow;horizontal=0;startSize=0;swimlaneHead=0;swimlaneBody=0;top=0;left=0;bottom=0;right=0;collapsible=0;dropTarget=0;fillColor=none;points=[[0,0.5],[1,0.5]];portConstraint=eastwest;fontStyle=0" parent="118" vertex="1">
                    <mxGeometry y="30" width="180" height="40" as="geometry"/>
                </mxCell>
                <mxCell id="120" value="0.1" style="shape=partialRectangle;html=1;whiteSpace=wrap;connectable=0;fillColor=none;top=0;left=0;bottom=0;right=0;overflow=hidden;fontStyle=0" parent="119" vertex="1">
                    <mxGeometry width="60" height="40" as="geometry">
                        <mxRectangle width="60" height="40" as="alternateBounds"/>
                    </mxGeometry>
                </mxCell>
                <mxCell id="121" value="0.1" style="shape=partialRectangle;html=1;whiteSpace=wrap;connectable=0;fillColor=none;top=0;left=0;bottom=0;right=0;overflow=hidden;fontStyle=0" parent="119" vertex="1">
                    <mxGeometry x="60" width="60" height="40" as="geometry">
                        <mxRectangle width="60" height="40" as="alternateBounds"/>
                    </mxGeometry>
                </mxCell>
                <mxCell id="122" value="0.1" style="shape=partialRectangle;html=1;whiteSpace=wrap;connectable=0;fillColor=none;top=0;left=0;bottom=0;right=0;overflow=hidden;fontStyle=0" parent="119" vertex="1">
                    <mxGeometry x="120" width="60" height="40" as="geometry">
                        <mxRectangle width="60" height="40" as="alternateBounds"/>
                    </mxGeometry>
                </mxCell>
                <mxCell id="123" value="" style="shape=tableRow;horizontal=0;startSize=0;swimlaneHead=0;swimlaneBody=0;top=0;left=0;bottom=0;right=0;collapsible=0;dropTarget=0;fillColor=none;points=[[0,0.5],[1,0.5]];portConstraint=eastwest;fontStyle=0" parent="118" vertex="1">
                    <mxGeometry y="70" width="180" height="40" as="geometry"/>
                </mxCell>
                <mxCell id="124" value="0.1" style="shape=partialRectangle;html=1;whiteSpace=wrap;connectable=0;fillColor=none;top=0;left=0;bottom=0;right=0;overflow=hidden;fontStyle=0" parent="123" vertex="1">
                    <mxGeometry width="60" height="40" as="geometry">
                        <mxRectangle width="60" height="40" as="alternateBounds"/>
                    </mxGeometry>
                </mxCell>
                <mxCell id="125" value="0.2" style="shape=partialRectangle;html=1;whiteSpace=wrap;connectable=0;fillColor=none;top=0;left=0;bottom=0;right=0;overflow=hidden;fontStyle=0" parent="123" vertex="1">
                    <mxGeometry x="60" width="60" height="40" as="geometry">
                        <mxRectangle width="60" height="40" as="alternateBounds"/>
                    </mxGeometry>
                </mxCell>
                <mxCell id="126" value="0.1" style="shape=partialRectangle;html=1;whiteSpace=wrap;connectable=0;fillColor=none;top=0;left=0;bottom=0;right=0;overflow=hidden;fontStyle=0" parent="123" vertex="1">
                    <mxGeometry x="120" width="60" height="40" as="geometry">
                        <mxRectangle width="60" height="40" as="alternateBounds"/>
                    </mxGeometry>
                </mxCell>
                <mxCell id="127" value="" style="shape=tableRow;horizontal=0;startSize=0;swimlaneHead=0;swimlaneBody=0;top=0;left=0;bottom=0;right=0;collapsible=0;dropTarget=0;fillColor=none;points=[[0,0.5],[1,0.5]];portConstraint=eastwest;fontStyle=0" parent="118" vertex="1">
                    <mxGeometry y="110" width="180" height="40" as="geometry"/>
                </mxCell>
                <mxCell id="128" value="0.1" style="shape=partialRectangle;html=1;whiteSpace=wrap;connectable=0;fillColor=none;top=0;left=0;bottom=0;right=0;overflow=hidden;fontStyle=0" parent="127" vertex="1">
                    <mxGeometry width="60" height="40" as="geometry">
                        <mxRectangle width="60" height="40" as="alternateBounds"/>
                    </mxGeometry>
                </mxCell>
                <mxCell id="129" value="0.1" style="shape=partialRectangle;html=1;whiteSpace=wrap;connectable=0;fillColor=none;top=0;left=0;bottom=0;right=0;overflow=hidden;fontStyle=0" parent="127" vertex="1">
                    <mxGeometry x="60" width="60" height="40" as="geometry">
                        <mxRectangle width="60" height="40" as="alternateBounds"/>
                    </mxGeometry>
                </mxCell>
                <mxCell id="130" value="0.1" style="shape=partialRectangle;html=1;whiteSpace=wrap;connectable=0;fillColor=none;top=0;left=0;bottom=0;right=0;overflow=hidden;fontStyle=0" parent="127" vertex="1">
                    <mxGeometry x="120" width="60" height="40" as="geometry">
                        <mxRectangle width="60" height="40" as="alternateBounds"/>
                    </mxGeometry>
                </mxCell>
                <mxCell id="170" value="" style="group;fontStyle=0" parent="1" vertex="1" connectable="0">
                    <mxGeometry x="1054" y="305" width="70" height="30" as="geometry"/>
                </mxCell>
                <mxCell id="164" value="" style="shape=sumEllipse;perimeter=ellipsePerimeter;whiteSpace=wrap;html=1;backgroundOutline=1;fontStyle=0" parent="170" vertex="1">
                    <mxGeometry x="-122" y="-9" width="30" height="30" as="geometry"/>
                </mxCell>
                <mxCell id="171" style="shape=flexArrow;html=1;entryX=0;entryY=0.5;entryDx=0;entryDy=0;fillColor=default;fontStyle=0" parent="1" edge="1">
                    <mxGeometry relative="1" as="geometry">
                        <mxPoint x="481" y="363" as="sourcePoint"/>
                        <mxPoint x="521" y="363" as="targetPoint"/>
                    </mxGeometry>
                </mxCell>
                <mxCell id="172" value="RGB2Y" style="shape=table;startSize=30;container=1;collapsible=0;childLayout=tableLayout;fontStyle=0;align=center;" parent="1" vertex="1">
                    <mxGeometry x="353" y="350" width="60" height="150" as="geometry"/>
                </mxCell>
                <mxCell id="173" value="" style="shape=tableRow;horizontal=0;startSize=0;swimlaneHead=0;swimlaneBody=0;top=0;left=0;bottom=0;right=0;collapsible=0;dropTarget=0;fillColor=none;points=[[0,0.5],[1,0.5]];portConstraint=eastwest;fontStyle=0" parent="172" vertex="1">
                    <mxGeometry y="30" width="60" height="40" as="geometry"/>
                </mxCell>
                <mxCell id="174" value="0.299" style="shape=partialRectangle;html=1;whiteSpace=wrap;connectable=0;fillColor=none;top=0;left=0;bottom=0;right=0;overflow=hidden;fontStyle=0" parent="173" vertex="1">
                    <mxGeometry width="60" height="40" as="geometry">
                        <mxRectangle width="60" height="40" as="alternateBounds"/>
                    </mxGeometry>
                </mxCell>
                <mxCell id="177" value="" style="shape=tableRow;horizontal=0;startSize=0;swimlaneHead=0;swimlaneBody=0;top=0;left=0;bottom=0;right=0;collapsible=0;dropTarget=0;fillColor=none;points=[[0,0.5],[1,0.5]];portConstraint=eastwest;fontStyle=0" parent="172" vertex="1">
                    <mxGeometry y="70" width="60" height="40" as="geometry"/>
                </mxCell>
                <mxCell id="178" value="0.587" style="shape=partialRectangle;html=1;whiteSpace=wrap;connectable=0;fillColor=none;top=0;left=0;bottom=0;right=0;overflow=hidden;fontStyle=0" parent="177" vertex="1">
                    <mxGeometry width="60" height="40" as="geometry">
                        <mxRectangle width="60" height="40" as="alternateBounds"/>
                    </mxGeometry>
                </mxCell>
                <mxCell id="181" value="" style="shape=tableRow;horizontal=0;startSize=0;swimlaneHead=0;swimlaneBody=0;top=0;left=0;bottom=0;right=0;collapsible=0;dropTarget=0;fillColor=none;points=[[0,0.5],[1,0.5]];portConstraint=eastwest;fontStyle=0" parent="172" vertex="1">
                    <mxGeometry y="110" width="60" height="40" as="geometry"/>
                </mxCell>
                <mxCell id="182" value="0.114" style="shape=partialRectangle;html=1;whiteSpace=wrap;connectable=0;fillColor=none;top=0;left=0;bottom=0;right=0;overflow=hidden;fontStyle=0" parent="181" vertex="1">
                    <mxGeometry width="60" height="40" as="geometry">
                        <mxRectangle width="60" height="40" as="alternateBounds"/>
                    </mxGeometry>
                </mxCell>
                <mxCell id="185" value="" style="group;fontStyle=0" parent="1" vertex="1" connectable="0">
                    <mxGeometry x="100" y="305" width="200" height="120" as="geometry"/>
                </mxCell>
                <mxCell id="187" value="" style="rounded=0;whiteSpace=wrap;html=1;fontStyle=0" parent="185" vertex="1">
                    <mxGeometry x="40" width="140" height="120" as="geometry"/>
                </mxCell>
                <mxCell id="188" value="Pixel row buffer" style="swimlane;childLayout=stackLayout;horizontal=1;fillColor=none;horizontalStack=1;resizeParent=1;resizeParentMax=0;resizeLast=0;collapsible=0;strokeColor=none;stackBorder=10;stackSpacing=-12;resizable=1;align=center;points=[];whiteSpace=wrap;html=1;fontStyle=0" parent="185" vertex="1">
                    <mxGeometry x="40" width="120" height="100" as="geometry"/>
                </mxCell>
                <mxCell id="189" value="FF 1" style="shape=step;perimeter=stepPerimeter;fixedSize=1;points=[];whiteSpace=wrap;html=1;fontStyle=0" parent="188" vertex="1">
                    <mxGeometry x="10" y="33" width="100" height="57" as="geometry"/>
                </mxCell>
                <mxCell id="190" value="" style="swimlane;childLayout=stackLayout;horizontal=1;fillColor=none;horizontalStack=1;resizeParent=1;resizeParentMax=0;resizeLast=0;collapsible=0;strokeColor=none;stackBorder=10;stackSpacing=-12;resizable=1;align=center;points=[];whiteSpace=wrap;html=1;fontStyle=0" parent="185" vertex="1">
                    <mxGeometry x="50" y="10" width="120" height="100" as="geometry"/>
                </mxCell>
                <mxCell id="191" value="FF 1" style="shape=step;perimeter=stepPerimeter;fixedSize=1;points=[];whiteSpace=wrap;html=1;fontStyle=0" parent="190" vertex="1">
                    <mxGeometry x="10" y="33" width="100" height="57" as="geometry"/>
                </mxCell>
                <mxCell id="192" value="" style="swimlane;childLayout=stackLayout;horizontal=1;fillColor=none;horizontalStack=1;resizeParent=1;resizeParentMax=0;resizeLast=0;collapsible=0;strokeColor=none;stackBorder=10;stackSpacing=-12;resizable=1;align=center;points=[];whiteSpace=wrap;html=1;fontStyle=0" parent="185" vertex="1">
                    <mxGeometry x="60" y="20" width="120" height="100" as="geometry"/>
                </mxCell>
                <mxCell id="193" value="FF 1" style="shape=step;perimeter=stepPerimeter;fixedSize=1;points=[];whiteSpace=wrap;html=1;fontStyle=0" parent="192" vertex="1">
                    <mxGeometry x="10" y="33" width="100" height="57" as="geometry"/>
                </mxCell>
                <mxCell id="194" value="" style="group;fontStyle=0" parent="1" vertex="1" connectable="0">
                    <mxGeometry x="413" y="348" width="70" height="30" as="geometry"/>
                </mxCell>
                <mxCell id="195" style="edgeStyle=orthogonalEdgeStyle;shape=flexArrow;html=1;entryX=0;entryY=0.5;entryDx=0;entryDy=0;fillColor=default;fontStyle=0" parent="194" edge="1">
                    <mxGeometry relative="1" as="geometry">
                        <mxPoint y="15" as="sourcePoint"/>
                        <mxPoint x="40" y="15" as="targetPoint"/>
                    </mxGeometry>
                </mxCell>
                <mxCell id="196" value="" style="shape=sumEllipse;perimeter=ellipsePerimeter;whiteSpace=wrap;html=1;backgroundOutline=1;fontStyle=0" parent="194" vertex="1">
                    <mxGeometry x="40" width="30" height="30" as="geometry"/>
                </mxCell>
                <mxCell id="201" value="R" style="text;strokeColor=none;align=center;fillColor=none;html=1;verticalAlign=middle;whiteSpace=wrap;rounded=0;fontFamily=Helvetica;fontSize=11;fontColor=default;fontStyle=0" parent="1" vertex="1">
                    <mxGeometry x="340" y="380" width="10" height="12" as="geometry"/>
                </mxCell>
                <mxCell id="202" value="G" style="text;strokeColor=none;align=center;fillColor=none;html=1;verticalAlign=middle;whiteSpace=wrap;rounded=0;fontFamily=Helvetica;fontSize=11;fontColor=default;fontStyle=0" parent="1" vertex="1">
                    <mxGeometry x="340" y="420" width="10" height="12" as="geometry"/>
                </mxCell>
                <mxCell id="203" value="B" style="text;strokeColor=none;align=center;fillColor=none;html=1;verticalAlign=middle;whiteSpace=wrap;rounded=0;fontFamily=Helvetica;fontSize=11;fontColor=default;fontStyle=0" parent="1" vertex="1">
                    <mxGeometry x="340" y="460" width="10" height="12" as="geometry"/>
                </mxCell>
                <mxCell id="207" value="" style="shape=flexArrow;endArrow=classic;html=1;fontStyle=0" parent="1" edge="1">
                    <mxGeometry width="50" height="50" relative="1" as="geometry">
                        <mxPoint x="1020" y="54.74000000000002" as="sourcePoint"/>
                        <mxPoint x="1060" y="54.74000000000002" as="targetPoint"/>
                    </mxGeometry>
                </mxCell>
                <mxCell id="208" style="edgeStyle=elbowEdgeStyle;shape=connector;rounded=1;html=1;entryX=0;entryY=0.25;entryDx=0;entryDy=0;labelBackgroundColor=default;strokeColor=default;fontFamily=Helvetica;fontSize=11;fontColor=default;endArrow=classic;fillColor=default;gradientColor=none;fontStyle=0" parent="1" source="62" target="28" edge="1">
                    <mxGeometry relative="1" as="geometry">
                        <Array as="points">
                            <mxPoint x="1040" y="140"/>
                        </Array>
                    </mxGeometry>
                </mxCell>
                <mxCell id="209" value="" style="rounded=0;whiteSpace=wrap;html=1;fontStyle=0" parent="1" vertex="1">
                    <mxGeometry x="520" y="300" width="310" height="120" as="geometry"/>
                </mxCell>
                <mxCell id="210" value="" style="group;fontStyle=0" parent="1" vertex="1" connectable="0">
                    <mxGeometry x="520" y="300" width="316" height="120" as="geometry"/>
                </mxCell>
                <mxCell id="211" value="Pixel row buffer" style="swimlane;childLayout=stackLayout;horizontal=1;fillColor=none;horizontalStack=1;resizeParent=1;resizeParentMax=0;resizeLast=0;collapsible=0;strokeColor=none;stackBorder=10;stackSpacing=-12;resizable=1;align=center;points=[];whiteSpace=wrap;html=1;fontStyle=0" parent="210" vertex="1">
                    <mxGeometry width="296" height="100" as="geometry"/>
                </mxCell>
                <mxCell id="212" value="FF 1" style="shape=step;perimeter=stepPerimeter;fixedSize=1;points=[];whiteSpace=wrap;html=1;fontStyle=0" parent="211" vertex="1">
                    <mxGeometry x="10" y="33" width="100" height="57" as="geometry"/>
                </mxCell>
                <mxCell id="213" value="FF 2" style="shape=step;perimeter=stepPerimeter;fixedSize=1;points=[];whiteSpace=wrap;html=1;fontStyle=0" parent="211" vertex="1">
                    <mxGeometry x="98" y="33" width="100" height="57" as="geometry"/>
                </mxCell>
                <mxCell id="214" value="FF 3" style="shape=step;perimeter=stepPerimeter;fixedSize=1;points=[];whiteSpace=wrap;html=1;fontStyle=0" parent="211" vertex="1">
                    <mxGeometry x="186" y="33" width="100" height="57" as="geometry"/>
                </mxCell>
                <mxCell id="215" value="" style="swimlane;childLayout=stackLayout;horizontal=1;fillColor=none;horizontalStack=1;resizeParent=1;resizeParentMax=0;resizeLast=0;collapsible=0;strokeColor=none;stackBorder=10;stackSpacing=-12;resizable=1;align=center;points=[];whiteSpace=wrap;html=1;fontStyle=0" parent="210" vertex="1">
                    <mxGeometry x="10" y="10" width="296" height="100" as="geometry"/>
                </mxCell>
                <mxCell id="216" value="FF 1" style="shape=step;perimeter=stepPerimeter;fixedSize=1;points=[];whiteSpace=wrap;html=1;fontStyle=0" parent="215" vertex="1">
                    <mxGeometry x="10" y="33" width="100" height="57" as="geometry"/>
                </mxCell>
                <mxCell id="217" value="FF 2" style="shape=step;perimeter=stepPerimeter;fixedSize=1;points=[];whiteSpace=wrap;html=1;fontStyle=0" parent="215" vertex="1">
                    <mxGeometry x="98" y="33" width="100" height="57" as="geometry"/>
                </mxCell>
                <mxCell id="218" value="FF 3" style="shape=step;perimeter=stepPerimeter;fixedSize=1;points=[];whiteSpace=wrap;html=1;fontStyle=0" parent="215" vertex="1">
                    <mxGeometry x="186" y="33" width="100" height="57" as="geometry"/>
                </mxCell>
                <mxCell id="219" value="" style="swimlane;childLayout=stackLayout;horizontal=1;fillColor=none;horizontalStack=1;resizeParent=1;resizeParentMax=0;resizeLast=0;collapsible=0;strokeColor=none;stackBorder=10;stackSpacing=-12;resizable=1;align=center;points=[];whiteSpace=wrap;html=1;fontStyle=0" parent="210" vertex="1">
                    <mxGeometry x="20" y="20" width="296" height="100" as="geometry"/>
                </mxCell>
                <mxCell id="220" value="FF 1" style="shape=step;perimeter=stepPerimeter;fixedSize=1;points=[];whiteSpace=wrap;html=1;fontStyle=0" parent="219" vertex="1">
                    <mxGeometry x="10" y="33" width="100" height="57" as="geometry"/>
                </mxCell>
                <mxCell id="221" value="FF 2" style="shape=step;perimeter=stepPerimeter;fixedSize=1;points=[];whiteSpace=wrap;html=1;fontStyle=0" parent="219" vertex="1">
                    <mxGeometry x="98" y="33" width="100" height="57" as="geometry"/>
                </mxCell>
                <mxCell id="222" value="FF 3" style="shape=step;perimeter=stepPerimeter;fixedSize=1;points=[];whiteSpace=wrap;html=1;fontStyle=0" parent="219" vertex="1">
                    <mxGeometry x="186" y="33" width="100" height="57" as="geometry"/>
                </mxCell>
                <mxCell id="232" value="HDMI_i" style="swimlane;fontStyle=0;childLayout=stackLayout;horizontal=1;startSize=70;horizontalStack=0;resizeParent=1;resizeParentMax=0;resizeLast=0;collapsible=1;marginBottom=0;whiteSpace=wrap;html=1;" vertex="1" parent="1">
                    <mxGeometry x="30" y="1150" width="110" height="307" as="geometry">
                        <mxRectangle x="160" y="200" width="60" height="30" as="alternateBounds"/>
                    </mxGeometry>
                </mxCell>
                <mxCell id="261" value="" style="shape=table;html=1;whiteSpace=wrap;startSize=0;container=1;collapsible=0;childLayout=tableLayout;columnLines=0;rowLines=0;fontStyle=0" vertex="1" parent="232">
                    <mxGeometry y="70" width="110" height="237" as="geometry"/>
                </mxCell>
                <mxCell id="262" value="" style="shape=tableRow;horizontal=0;startSize=0;swimlaneHead=0;swimlaneBody=0;top=0;left=0;bottom=0;right=0;collapsible=0;dropTarget=0;fillColor=none;points=[[0,0.5],[1,0.5]];portConstraint=eastwest;fontStyle=0" vertex="1" parent="261">
                    <mxGeometry width="110" height="39" as="geometry"/>
                </mxCell>
                <mxCell id="263" value="" style="shape=partialRectangle;html=1;whiteSpace=wrap;connectable=0;fillColor=none;top=0;left=0;bottom=0;right=0;overflow=hidden;fontSize=12;fontStyle=0" vertex="1" parent="262">
                    <mxGeometry width="55" height="39" as="geometry">
                        <mxRectangle width="55" height="39" as="alternateBounds"/>
                    </mxGeometry>
                </mxCell>
                <mxCell id="265" value="rx_r" style="shape=partialRectangle;html=1;whiteSpace=wrap;connectable=0;fillColor=none;top=0;left=0;bottom=0;right=0;overflow=hidden;fontSize=12;fontStyle=0" vertex="1" parent="262">
                    <mxGeometry x="55" width="55" height="39" as="geometry">
                        <mxRectangle width="55" height="39" as="alternateBounds"/>
                    </mxGeometry>
                </mxCell>
                <mxCell id="266" value="" style="shape=tableRow;horizontal=0;startSize=0;swimlaneHead=0;swimlaneBody=0;top=0;left=0;bottom=0;right=0;collapsible=0;dropTarget=0;fillColor=none;points=[[0,0.5],[1,0.5]];portConstraint=eastwest;fontStyle=0" vertex="1" parent="261">
                    <mxGeometry y="39" width="110" height="42" as="geometry"/>
                </mxCell>
                <mxCell id="267" value="" style="shape=partialRectangle;html=1;whiteSpace=wrap;connectable=0;fillColor=none;top=0;left=0;bottom=0;right=0;overflow=hidden;fontSize=12;fontStyle=0" vertex="1" parent="266">
                    <mxGeometry width="55" height="42" as="geometry">
                        <mxRectangle width="55" height="42" as="alternateBounds"/>
                    </mxGeometry>
                </mxCell>
                <mxCell id="269" value="rx_g" style="shape=partialRectangle;html=1;whiteSpace=wrap;connectable=0;fillColor=none;top=0;left=0;bottom=0;right=0;overflow=hidden;fontSize=12;fontStyle=0" vertex="1" parent="266">
                    <mxGeometry x="55" width="55" height="42" as="geometry">
                        <mxRectangle width="55" height="42" as="alternateBounds"/>
                    </mxGeometry>
                </mxCell>
                <mxCell id="279" style="shape=tableRow;horizontal=0;startSize=0;swimlaneHead=0;swimlaneBody=0;top=0;left=0;bottom=0;right=0;collapsible=0;dropTarget=0;fillColor=none;points=[[0,0.5],[1,0.5]];portConstraint=eastwest;fontStyle=0" vertex="1" parent="261">
                    <mxGeometry y="81" width="110" height="39" as="geometry"/>
                </mxCell>
                <mxCell id="280" style="shape=partialRectangle;html=1;whiteSpace=wrap;connectable=0;fillColor=none;top=0;left=0;bottom=0;right=0;overflow=hidden;fontSize=12;fontStyle=0" vertex="1" parent="279">
                    <mxGeometry width="55" height="39" as="geometry">
                        <mxRectangle width="55" height="39" as="alternateBounds"/>
                    </mxGeometry>
                </mxCell>
                <mxCell id="281" value="&lt;span style=&quot;&quot;&gt;rx_b&lt;/span&gt;" style="shape=partialRectangle;html=1;whiteSpace=wrap;connectable=0;fillColor=none;top=0;left=0;bottom=0;right=0;overflow=hidden;fontSize=12;fontStyle=0" vertex="1" parent="279">
                    <mxGeometry x="55" width="55" height="39" as="geometry">
                        <mxRectangle width="55" height="39" as="alternateBounds"/>
                    </mxGeometry>
                </mxCell>
                <mxCell id="282" style="shape=tableRow;horizontal=0;startSize=0;swimlaneHead=0;swimlaneBody=0;top=0;left=0;bottom=0;right=0;collapsible=0;dropTarget=0;fillColor=none;points=[[0,0.5],[1,0.5]];portConstraint=eastwest;fontStyle=0" vertex="1" parent="261">
                    <mxGeometry y="120" width="110" height="39" as="geometry"/>
                </mxCell>
                <mxCell id="283" style="shape=partialRectangle;html=1;whiteSpace=wrap;connectable=0;fillColor=none;top=0;left=0;bottom=0;right=0;overflow=hidden;fontSize=12;fontStyle=0" vertex="1" parent="282">
                    <mxGeometry width="55" height="39" as="geometry">
                        <mxRectangle width="55" height="39" as="alternateBounds"/>
                    </mxGeometry>
                </mxCell>
                <mxCell id="284" value="&lt;span style=&quot;&quot;&gt;rx_hsync&lt;/span&gt;" style="shape=partialRectangle;html=1;whiteSpace=wrap;connectable=0;fillColor=none;top=0;left=0;bottom=0;right=0;overflow=hidden;fontSize=12;fontStyle=0" vertex="1" parent="282">
                    <mxGeometry x="55" width="55" height="39" as="geometry">
                        <mxRectangle width="55" height="39" as="alternateBounds"/>
                    </mxGeometry>
                </mxCell>
                <mxCell id="276" style="shape=tableRow;horizontal=0;startSize=0;swimlaneHead=0;swimlaneBody=0;top=0;left=0;bottom=0;right=0;collapsible=0;dropTarget=0;fillColor=none;points=[[0,0.5],[1,0.5]];portConstraint=eastwest;fontStyle=0" vertex="1" parent="261">
                    <mxGeometry y="159" width="110" height="39" as="geometry"/>
                </mxCell>
                <mxCell id="277" style="shape=partialRectangle;html=1;whiteSpace=wrap;connectable=0;fillColor=none;top=0;left=0;bottom=0;right=0;overflow=hidden;fontSize=12;fontStyle=0" vertex="1" parent="276">
                    <mxGeometry width="55" height="39" as="geometry">
                        <mxRectangle width="55" height="39" as="alternateBounds"/>
                    </mxGeometry>
                </mxCell>
                <mxCell id="278" value="rx_vsync" style="shape=partialRectangle;html=1;whiteSpace=wrap;connectable=0;fillColor=none;top=0;left=0;bottom=0;right=0;overflow=hidden;fontSize=12;fontStyle=0" vertex="1" parent="276">
                    <mxGeometry x="55" width="55" height="39" as="geometry">
                        <mxRectangle width="55" height="39" as="alternateBounds"/>
                    </mxGeometry>
                </mxCell>
                <mxCell id="270" value="" style="shape=tableRow;horizontal=0;startSize=0;swimlaneHead=0;swimlaneBody=0;top=0;left=0;bottom=0;right=0;collapsible=0;dropTarget=0;fillColor=none;points=[[0,0.5],[1,0.5]];portConstraint=eastwest;fontStyle=0" vertex="1" parent="261">
                    <mxGeometry y="198" width="110" height="39" as="geometry"/>
                </mxCell>
                <mxCell id="271" value="" style="shape=partialRectangle;html=1;whiteSpace=wrap;connectable=0;fillColor=none;top=0;left=0;bottom=0;right=0;overflow=hidden;fontSize=12;fontStyle=0" vertex="1" parent="270">
                    <mxGeometry width="55" height="39" as="geometry">
                        <mxRectangle width="55" height="39" as="alternateBounds"/>
                    </mxGeometry>
                </mxCell>
                <mxCell id="273" value="rx_dv" style="shape=partialRectangle;html=1;whiteSpace=wrap;connectable=0;fillColor=none;top=0;left=0;bottom=0;right=0;overflow=hidden;fontSize=12;fontStyle=0" vertex="1" parent="270">
                    <mxGeometry x="55" width="55" height="39" as="geometry">
                        <mxRectangle width="55" height="39" as="alternateBounds"/>
                    </mxGeometry>
                </mxCell>
                <mxCell id="285" value="HDMI_i" style="swimlane;fontStyle=0;childLayout=stackLayout;horizontal=1;startSize=70;horizontalStack=0;resizeParent=1;resizeParentMax=0;resizeLast=0;collapsible=1;marginBottom=0;whiteSpace=wrap;html=1;" vertex="1" parent="1">
                    <mxGeometry x="1570" y="1150" width="110" height="307" as="geometry">
                        <mxRectangle x="160" y="200" width="60" height="30" as="alternateBounds"/>
                    </mxGeometry>
                </mxCell>
                <mxCell id="286" value="" style="shape=table;html=1;whiteSpace=wrap;startSize=0;container=1;collapsible=0;childLayout=tableLayout;columnLines=0;rowLines=0;fontStyle=0;flipH=1;flipV=0;" vertex="1" parent="285">
                    <mxGeometry y="70" width="110" height="237" as="geometry"/>
                </mxCell>
                <mxCell id="287" value="" style="shape=tableRow;horizontal=0;startSize=0;swimlaneHead=0;swimlaneBody=0;top=0;left=0;bottom=0;right=0;collapsible=0;dropTarget=0;fillColor=none;points=[[0,0.5],[1,0.5]];portConstraint=eastwest;fontStyle=0" vertex="1" parent="286">
                    <mxGeometry width="110" height="39" as="geometry"/>
                </mxCell>
                <mxCell id="289" value="rx_r" style="shape=partialRectangle;html=1;whiteSpace=wrap;connectable=0;fillColor=none;top=0;left=0;bottom=0;right=0;overflow=hidden;fontSize=12;fontStyle=0;flipV=1;flipH=1;" vertex="1" parent="287">
                    <mxGeometry width="55" height="39" as="geometry">
                        <mxRectangle width="55" height="39" as="alternateBounds"/>
                    </mxGeometry>
                </mxCell>
                <mxCell id="305" style="shape=partialRectangle;html=1;whiteSpace=wrap;connectable=0;fillColor=none;top=0;left=0;bottom=0;right=0;overflow=hidden;fontSize=12;fontStyle=0;flipV=1;flipH=1;" vertex="1" parent="287">
                    <mxGeometry x="55" width="55" height="39" as="geometry">
                        <mxRectangle width="55" height="39" as="alternateBounds"/>
                    </mxGeometry>
                </mxCell>
                <mxCell id="290" value="" style="shape=tableRow;horizontal=0;startSize=0;swimlaneHead=0;swimlaneBody=0;top=0;left=0;bottom=0;right=0;collapsible=0;dropTarget=0;fillColor=none;points=[[0,0.5],[1,0.5]];portConstraint=eastwest;fontStyle=0" vertex="1" parent="286">
                    <mxGeometry y="39" width="110" height="42" as="geometry"/>
                </mxCell>
                <mxCell id="292" value="rx_g" style="shape=partialRectangle;html=1;whiteSpace=wrap;connectable=0;fillColor=none;top=0;left=0;bottom=0;right=0;overflow=hidden;fontSize=12;fontStyle=0;flipH=1;flipV=1;" vertex="1" parent="290">
                    <mxGeometry width="55" height="42" as="geometry">
                        <mxRectangle width="55" height="42" as="alternateBounds"/>
                    </mxGeometry>
                </mxCell>
                <mxCell id="306" style="shape=partialRectangle;html=1;whiteSpace=wrap;connectable=0;fillColor=none;top=0;left=0;bottom=0;right=0;overflow=hidden;fontSize=12;fontStyle=0;flipH=1;flipV=1;" vertex="1" parent="290">
                    <mxGeometry x="55" width="55" height="42" as="geometry">
                        <mxRectangle width="55" height="42" as="alternateBounds"/>
                    </mxGeometry>
                </mxCell>
                <mxCell id="293" style="shape=tableRow;horizontal=0;startSize=0;swimlaneHead=0;swimlaneBody=0;top=0;left=0;bottom=0;right=0;collapsible=0;dropTarget=0;fillColor=none;points=[[0,0.5],[1,0.5]];portConstraint=eastwest;fontStyle=0" vertex="1" parent="286">
                    <mxGeometry y="81" width="110" height="39" as="geometry"/>
                </mxCell>
                <mxCell id="295" value="&lt;span style=&quot;&quot;&gt;rx_b&lt;/span&gt;" style="shape=partialRectangle;html=1;whiteSpace=wrap;connectable=0;fillColor=none;top=0;left=0;bottom=0;right=0;overflow=hidden;fontSize=12;fontStyle=0;flipH=1;flipV=1;" vertex="1" parent="293">
                    <mxGeometry width="55" height="39" as="geometry">
                        <mxRectangle width="55" height="39" as="alternateBounds"/>
                    </mxGeometry>
                </mxCell>
                <mxCell id="307" style="shape=partialRectangle;html=1;whiteSpace=wrap;connectable=0;fillColor=none;top=0;left=0;bottom=0;right=0;overflow=hidden;fontSize=12;fontStyle=0;flipH=1;flipV=1;" vertex="1" parent="293">
                    <mxGeometry x="55" width="55" height="39" as="geometry">
                        <mxRectangle width="55" height="39" as="alternateBounds"/>
                    </mxGeometry>
                </mxCell>
                <mxCell id="296" style="shape=tableRow;horizontal=0;startSize=0;swimlaneHead=0;swimlaneBody=0;top=0;left=0;bottom=0;right=0;collapsible=0;dropTarget=0;fillColor=none;points=[[0,0.5],[1,0.5]];portConstraint=eastwest;fontStyle=0" vertex="1" parent="286">
                    <mxGeometry y="120" width="110" height="39" as="geometry"/>
                </mxCell>
                <mxCell id="298" value="&lt;span style=&quot;&quot;&gt;rx_hsync&lt;/span&gt;" style="shape=partialRectangle;html=1;whiteSpace=wrap;connectable=0;fillColor=none;top=0;left=0;bottom=0;right=0;overflow=hidden;fontSize=12;fontStyle=0;flipH=1;flipV=1;" vertex="1" parent="296">
                    <mxGeometry width="55" height="39" as="geometry">
                        <mxRectangle width="55" height="39" as="alternateBounds"/>
                    </mxGeometry>
                </mxCell>
                <mxCell id="308" style="shape=partialRectangle;html=1;whiteSpace=wrap;connectable=0;fillColor=none;top=0;left=0;bottom=0;right=0;overflow=hidden;fontSize=12;fontStyle=0;flipH=1;flipV=1;" vertex="1" parent="296">
                    <mxGeometry x="55" width="55" height="39" as="geometry">
                        <mxRectangle width="55" height="39" as="alternateBounds"/>
                    </mxGeometry>
                </mxCell>
                <mxCell id="299" style="shape=tableRow;horizontal=0;startSize=0;swimlaneHead=0;swimlaneBody=0;top=0;left=0;bottom=0;right=0;collapsible=0;dropTarget=0;fillColor=none;points=[[0,0.5],[1,0.5]];portConstraint=eastwest;fontStyle=0" vertex="1" parent="286">
                    <mxGeometry y="159" width="110" height="39" as="geometry"/>
                </mxCell>
                <mxCell id="301" value="rx_vsync" style="shape=partialRectangle;html=1;whiteSpace=wrap;connectable=0;fillColor=none;top=0;left=0;bottom=0;right=0;overflow=hidden;fontSize=12;fontStyle=0;flipH=1;flipV=1;" vertex="1" parent="299">
                    <mxGeometry width="55" height="39" as="geometry">
                        <mxRectangle width="55" height="39" as="alternateBounds"/>
                    </mxGeometry>
                </mxCell>
                <mxCell id="309" style="shape=partialRectangle;html=1;whiteSpace=wrap;connectable=0;fillColor=none;top=0;left=0;bottom=0;right=0;overflow=hidden;fontSize=12;fontStyle=0;flipH=1;flipV=1;" vertex="1" parent="299">
                    <mxGeometry x="55" width="55" height="39" as="geometry">
                        <mxRectangle width="55" height="39" as="alternateBounds"/>
                    </mxGeometry>
                </mxCell>
                <mxCell id="302" value="" style="shape=tableRow;horizontal=0;startSize=0;swimlaneHead=0;swimlaneBody=0;top=0;left=0;bottom=0;right=0;collapsible=0;dropTarget=0;fillColor=none;points=[[0,0.5],[1,0.5]];portConstraint=eastwest;fontStyle=0" vertex="1" parent="286">
                    <mxGeometry y="198" width="110" height="39" as="geometry"/>
                </mxCell>
                <mxCell id="304" value="rx_dv" style="shape=partialRectangle;html=1;whiteSpace=wrap;connectable=0;fillColor=none;top=0;left=0;bottom=0;right=0;overflow=hidden;fontSize=12;fontStyle=0;flipH=1;flipV=1;" vertex="1" parent="302">
                    <mxGeometry width="55" height="39" as="geometry">
                        <mxRectangle width="55" height="39" as="alternateBounds"/>
                    </mxGeometry>
                </mxCell>
                <mxCell id="310" style="shape=partialRectangle;html=1;whiteSpace=wrap;connectable=0;fillColor=none;top=0;left=0;bottom=0;right=0;overflow=hidden;fontSize=12;fontStyle=0;flipH=1;flipV=1;" vertex="1" parent="302">
                    <mxGeometry x="55" width="55" height="39" as="geometry">
                        <mxRectangle width="55" height="39" as="alternateBounds"/>
                    </mxGeometry>
                </mxCell>
                <mxCell id="333" value="" style="group" vertex="1" connectable="0" parent="1">
                    <mxGeometry x="250" y="1130" width="80" height="140" as="geometry"/>
                </mxCell>
                <mxCell id="330" value="" style="shape=trapezoid;perimeter=trapezoidPerimeter;whiteSpace=wrap;html=1;fixedSize=1;rotation=90;movable=1;resizable=1;rotatable=1;deletable=1;editable=1;connectable=1;size=30;" vertex="1" parent="333">
                    <mxGeometry x="-30" y="30" width="140" height="80" as="geometry"/>
                </mxCell>
                <mxCell id="331" value="" style="triangle;whiteSpace=wrap;html=1;" vertex="1" parent="333">
                    <mxGeometry y="55" width="30" height="30" as="geometry"/>
                </mxCell>
                <mxCell id="336" style="edgeStyle=none;html=1;entryX=0.25;entryY=1;entryDx=0;entryDy=0;" edge="1" parent="1" source="335" target="330">
                    <mxGeometry relative="1" as="geometry"/>
                </mxCell>
                <mxCell id="335" value="0.125" style="text;html=1;align=center;verticalAlign=middle;resizable=0;points=[];autosize=1;strokeColor=none;fillColor=none;" vertex="1" parent="1">
                    <mxGeometry x="160" y="1150" width="50" height="30" as="geometry"/>
                </mxCell>
                <mxCell id="347" value="" style="group" vertex="1" connectable="0" parent="1">
                    <mxGeometry x="440" y="1160" width="80" height="140" as="geometry"/>
                </mxCell>
                <mxCell id="348" value="" style="shape=trapezoid;perimeter=trapezoidPerimeter;whiteSpace=wrap;html=1;fixedSize=1;rotation=90;movable=1;resizable=1;rotatable=1;deletable=1;editable=1;connectable=1;size=30;" vertex="1" parent="347">
                    <mxGeometry x="-30" y="30" width="140" height="80" as="geometry"/>
                </mxCell>
                <mxCell id="349" value="" style="triangle;whiteSpace=wrap;html=1;" vertex="1" parent="347">
                    <mxGeometry y="55" width="30" height="30" as="geometry"/>
                </mxCell>
                <mxCell id="350" style="edgeStyle=none;html=1;entryX=0.25;entryY=1;entryDx=0;entryDy=0;" edge="1" parent="1" source="351" target="348">
                    <mxGeometry relative="1" as="geometry"/>
                </mxCell>
                <mxCell id="351" value="0.125" style="text;html=1;align=center;verticalAlign=middle;resizable=0;points=[];autosize=1;strokeColor=none;fillColor=none;" vertex="1" parent="1">
                    <mxGeometry x="350" y="1180" width="50" height="30" as="geometry"/>
                </mxCell>
                <mxCell id="352" value="" style="group" vertex="1" connectable="0" parent="1">
                    <mxGeometry x="650" y="1200" width="80" height="140" as="geometry"/>
                </mxCell>
                <mxCell id="353" value="" style="shape=trapezoid;perimeter=trapezoidPerimeter;whiteSpace=wrap;html=1;fixedSize=1;rotation=90;movable=1;resizable=1;rotatable=1;deletable=1;editable=1;connectable=1;size=30;" vertex="1" parent="352">
                    <mxGeometry x="-30" y="30" width="140" height="80" as="geometry"/>
                </mxCell>
                <mxCell id="354" value="" style="triangle;whiteSpace=wrap;html=1;" vertex="1" parent="352">
                    <mxGeometry y="55" width="30" height="30" as="geometry"/>
                </mxCell>
                <mxCell id="355" style="edgeStyle=none;html=1;entryX=0.25;entryY=1;entryDx=0;entryDy=0;" edge="1" parent="1" source="356" target="353">
                    <mxGeometry relative="1" as="geometry"/>
                </mxCell>
                <mxCell id="356" value="0.125" style="text;html=1;align=center;verticalAlign=middle;resizable=0;points=[];autosize=1;strokeColor=none;fillColor=none;" vertex="1" parent="1">
                    <mxGeometry x="560" y="1220" width="50" height="30" as="geometry"/>
                </mxCell>
                <mxCell id="357" value="" style="shape=flexArrow;endArrow=classic;html=1;" edge="1" parent="1">
                    <mxGeometry width="50" height="50" relative="1" as="geometry">
                        <mxPoint x="350" y="1143.4193548387098" as="sourcePoint"/>
                        <mxPoint x="800" y="1146" as="targetPoint"/>
                    </mxGeometry>
                </mxCell>
                <mxCell id="358" style="edgeStyle=none;html=1;exitX=1;exitY=0.5;exitDx=0;exitDy=0;entryX=0.75;entryY=1;entryDx=0;entryDy=0;" edge="1" parent="1" source="262" target="330">
                    <mxGeometry relative="1" as="geometry"/>
                </mxCell>
                <mxCell id="359" style="edgeStyle=none;html=1;exitX=1;exitY=0.5;exitDx=0;exitDy=0;entryX=0.75;entryY=1;entryDx=0;entryDy=0;" edge="1" parent="1" source="266" target="348">
                    <mxGeometry relative="1" as="geometry"/>
                </mxCell>
                <mxCell id="360" style="edgeStyle=none;html=1;exitX=1;exitY=0.5;exitDx=0;exitDy=0;entryX=0.75;entryY=1;entryDx=0;entryDy=0;" edge="1" parent="1" source="279" target="353">
                    <mxGeometry relative="1" as="geometry"/>
                </mxCell>
                <mxCell id="361" style="edgeStyle=none;html=1;exitX=0.5;exitY=0;exitDx=0;exitDy=0;" edge="1" parent="1" source="330">
                    <mxGeometry relative="1" as="geometry">
                        <mxPoint x="350" y="1150.0000000000002" as="targetPoint"/>
                    </mxGeometry>
                </mxCell>
                <mxCell id="362" style="edgeStyle=none;html=1;exitX=0.5;exitY=0;exitDx=0;exitDy=0;" edge="1" parent="1" source="348">
                    <mxGeometry relative="1" as="geometry">
                        <mxPoint x="560" y="1150.0000000000002" as="targetPoint"/>
                    </mxGeometry>
                </mxCell>
                <mxCell id="363" style="edgeStyle=none;html=1;exitX=0.5;exitY=0;exitDx=0;exitDy=0;" edge="1" parent="1" source="353">
                    <mxGeometry relative="1" as="geometry">
                        <mxPoint x="760" y="1150.0000000000002" as="targetPoint"/>
                    </mxGeometry>
                </mxCell>
                <mxCell id="364" value="" style="shape=sumEllipse;perimeter=ellipsePerimeter;whiteSpace=wrap;html=1;backgroundOutline=1;" vertex="1" parent="1">
                    <mxGeometry x="800" y="1126" width="40" height="40" as="geometry"/>
                </mxCell>
                <mxCell id="365" value="Sequencer FSM" style="shape=table;startSize=30;container=1;collapsible=0;childLayout=tableLayout;fixedRows=1;rowLines=0;fontStyle=0;" vertex="1" parent="1">
                    <mxGeometry x="380" y="1380" width="180" height="120" as="geometry"/>
                </mxCell>
                <mxCell id="366" value="" style="shape=tableRow;horizontal=0;startSize=0;swimlaneHead=0;swimlaneBody=0;top=0;left=0;bottom=0;right=0;collapsible=0;dropTarget=0;fillColor=none;points=[[0,0.5],[1,0.5]];portConstraint=eastwest;fontStyle=0" vertex="1" parent="365">
                    <mxGeometry y="30" width="180" height="30" as="geometry"/>
                </mxCell>
                <mxCell id="367" value="HSYNC" style="shape=partialRectangle;html=1;whiteSpace=wrap;connectable=0;fillColor=none;top=0;left=0;bottom=0;right=0;overflow=hidden;pointerEvents=1;fontStyle=0" vertex="1" parent="366">
                    <mxGeometry width="63" height="30" as="geometry">
                        <mxRectangle width="63" height="30" as="alternateBounds"/>
                    </mxGeometry>
                </mxCell>
                <mxCell id="368" value="Buffer Pointer [10:0]" style="shape=partialRectangle;html=1;whiteSpace=wrap;connectable=0;fillColor=none;top=0;left=0;bottom=0;right=0;align=left;spacingLeft=6;overflow=hidden;fontStyle=0" vertex="1" parent="366">
                    <mxGeometry x="63" width="117" height="30" as="geometry">
                        <mxRectangle width="117" height="30" as="alternateBounds"/>
                    </mxGeometry>
                </mxCell>
                <mxCell id="369" value="" style="shape=tableRow;horizontal=0;startSize=0;swimlaneHead=0;swimlaneBody=0;top=0;left=0;bottom=0;right=0;collapsible=0;dropTarget=0;fillColor=none;points=[[0,0.5],[1,0.5]];portConstraint=eastwest;fontStyle=0" vertex="1" parent="365">
                    <mxGeometry y="60" width="180" height="30" as="geometry"/>
                </mxCell>
                <mxCell id="370" value="VSYNC" style="shape=partialRectangle;html=1;whiteSpace=wrap;connectable=0;fillColor=none;top=0;left=0;bottom=0;right=0;overflow=hidden;fontStyle=0" vertex="1" parent="369">
                    <mxGeometry width="63" height="30" as="geometry">
                        <mxRectangle width="63" height="30" as="alternateBounds"/>
                    </mxGeometry>
                </mxCell>
                <mxCell id="371" value="Store Enable" style="shape=partialRectangle;html=1;whiteSpace=wrap;connectable=0;fillColor=none;top=0;left=0;bottom=0;right=0;align=left;spacingLeft=6;overflow=hidden;fontStyle=0" vertex="1" parent="369">
                    <mxGeometry x="63" width="117" height="30" as="geometry">
                        <mxRectangle width="117" height="30" as="alternateBounds"/>
                    </mxGeometry>
                </mxCell>
                <mxCell id="372" value="" style="shape=tableRow;horizontal=0;startSize=0;swimlaneHead=0;swimlaneBody=0;top=0;left=0;bottom=0;right=0;collapsible=0;dropTarget=0;fillColor=none;points=[[0,0.5],[1,0.5]];portConstraint=eastwest;fontStyle=0" vertex="1" parent="365">
                    <mxGeometry y="90" width="180" height="30" as="geometry"/>
                </mxCell>
                <mxCell id="373" value="DV" style="shape=partialRectangle;html=1;whiteSpace=wrap;connectable=0;fillColor=none;top=0;left=0;bottom=0;right=0;overflow=hidden;fontStyle=0" vertex="1" parent="372">
                    <mxGeometry width="63" height="30" as="geometry">
                        <mxRectangle width="63" height="30" as="alternateBounds"/>
                    </mxGeometry>
                </mxCell>
                <mxCell id="374" value="Chain Enable [3:0]" style="shape=partialRectangle;html=1;whiteSpace=wrap;connectable=0;fillColor=none;top=0;left=0;bottom=0;right=0;align=left;spacingLeft=6;overflow=hidden;fontStyle=0" vertex="1" parent="372">
                    <mxGeometry x="63" width="117" height="30" as="geometry">
                        <mxRectangle width="117" height="30" as="alternateBounds"/>
                    </mxGeometry>
                </mxCell>
                <mxCell id="375" style="edgeStyle=none;html=1;exitX=1;exitY=0.5;exitDx=0;exitDy=0;entryX=0;entryY=0.5;entryDx=0;entryDy=0;" edge="1" parent="1" source="282" target="366">
                    <mxGeometry relative="1" as="geometry"/>
                </mxCell>
                <mxCell id="376" style="edgeStyle=none;html=1;exitX=1;exitY=0.5;exitDx=0;exitDy=0;entryX=0;entryY=0.5;entryDx=0;entryDy=0;" edge="1" parent="1" source="276" target="369">
                    <mxGeometry relative="1" as="geometry"/>
                </mxCell>
                <mxCell id="377" style="edgeStyle=none;html=1;exitX=1;exitY=0.5;exitDx=0;exitDy=0;entryX=0;entryY=0.5;entryDx=0;entryDy=0;" edge="1" parent="1" source="270" target="372">
                    <mxGeometry relative="1" as="geometry"/>
                </mxCell>
            </root>
        </mxGraphModel>
    </diagram>
</mxfile>